<svg width="92" height="24" viewBox="0 0 92 24" fill="none" xmlns="http://www.w3.org/2000/svg">
<path d="M16.9481 20.0237C16.6889 18.3104 16.5161 16.3507 15.9005 13.9071C15.1359 10.8606 14.3345 10.5063 14.0106 8.05396C13.9193 7.52251 13.8968 6.98151 13.9436 6.44431C13.9652 6.26066 13.909 6.20664 13.8378 6.37733C13.4913 7.15749 13.3586 8.0158 13.4533 8.86419C13.7341 10.9297 14.5721 11.9539 14.786 13.9784C14.9653 15.6896 13.9393 16.7655 12.747 16.7655C11.5547 16.7655 11.0622 16.2254 10.7295 15.5621C10.2068 14.445 10.2932 12.736 10.9412 10.7223C12.6346 5.53685 14.8918 4.51273 15.6262 3.86454C16.6004 3.09753 16.4902 1.96753 16.3801 1.48787C16.3612 1.41354 16.3204 1.34659 16.263 1.29573C16.2056 1.24487 16.1343 1.21245 16.0582 1.20267C13.5764 0.755428 12.1162 1.41873 11.2803 2.28298C11.2123 2.03579 11.1128 1.79834 10.9844 1.57646C10.6194 0.958525 9.98002 0.327628 9.64523 0.567455C9.26723 0.837531 9.31691 2.13822 9.95842 3.24877C10.0886 3.46935 10.2638 3.66002 10.4725 3.80837C10.088 5.07881 10.5351 5.92576 10.2565 6.83322C9.68843 8.6114 8.93243 9.54046 8.3838 12.9499C7.56516 11.2214 9.39035 7.31936 9.39035 7.31936C9.39035 7.31936 8.84171 4.64884 5.47646 3.9877C1.01826 3.10833 -1.48948 7.69746 0.957776 9.53182C2.30993 10.5473 2.07233 7.47492 3.91911 9.60096C4.38999 10.1454 4.8695 10.5581 5.1395 13.1768C5.28854 14.6265 6.36421 15.9618 7.52844 16.3766C7.18285 18.8916 7.23252 19.7385 7.22389 20.0497C7.18501 20.821 8.27364 20.6827 8.86547 20.3068C9.84394 19.678 9.35579 18.5416 12.343 18.4897C14.8335 18.4486 14.8097 19.637 15.6521 20.3154C15.8641 20.4893 16.1258 20.5914 16.3995 20.6071C16.9287 20.5963 16.9892 20.2938 16.9481 20.0237ZM12.5677 2.57034C12.6885 2.57077 12.8065 2.60699 12.9067 2.67444C13.0069 2.74188 13.0849 2.83753 13.1309 2.94929C13.1768 3.06106 13.1886 3.18393 13.1648 3.3024C13.141 3.42087 13.0826 3.52961 12.997 3.61491C12.9114 3.70021 12.8025 3.75823 12.684 3.78165C12.5655 3.80507 12.4427 3.79283 12.3311 3.74649C12.2195 3.70015 12.1242 3.62178 12.0571 3.52127C11.99 3.42076 11.9542 3.30263 11.9542 3.18179C11.9542 3.10131 11.9701 3.02162 12.001 2.9473C12.0318 2.87297 12.0771 2.80547 12.134 2.74866C12.191 2.69186 12.2587 2.64686 12.3331 2.61626C12.4075 2.58566 12.4872 2.57005 12.5677 2.57034ZM5.54126 5.69242L5.83934 8.70431C5.445 7.8707 4.7961 7.18396 3.98626 6.7432C3.17642 6.30243 2.24752 6.13043 1.33361 6.25202C3.11992 5.26246 4.81119 6.36869 4.81119 6.36869L4.43967 4.76984C6.47005 4.31179 8.46804 6.96286 8.46804 6.96286C8.46804 6.96286 6.48301 5.10473 5.54126 5.69242Z" fill="url(#paint0_linear_1396_6870)"/>
<path d="M11.4354 1.54571C11.6018 1.386 11.7811 1.24573 11.9707 1.12692C11.8226 0.626471 11.6584 0.218151 11.2569 0.0129443C11.1034 -0.0687197 11.0035 0.245373 10.9732 0.691384C11.0872 0.849351 11.1899 1.01814 11.2801 1.19603C11.3394 1.30774 11.3913 1.42465 11.4354 1.54571Z" fill="url(#paint1_linear_1396_6870)"/>
<path d="M30.6925 8.47526C30.9387 8.58861 31.1586 8.74991 31.3388 8.94928C31.4391 9.06857 31.4973 9.21636 31.5047 9.37063C31.498 9.57391 31.4542 9.77438 31.3755 9.96263C31.2798 10.191 31.1712 10.4139 31.0501 10.6305C31.0343 10.6592 31.0113 10.6836 30.9832 10.7013C30.9552 10.719 30.923 10.7295 30.8897 10.7319C30.8564 10.7342 30.823 10.7282 30.7926 10.7145C30.7623 10.7009 30.736 10.6799 30.7162 10.6536C30.3885 10.2946 29.9869 10.0074 29.5376 9.81094C29.0216 9.57061 28.4567 9.44745 27.8851 9.45069C27.6577 9.45314 27.4308 9.47286 27.2064 9.50968C26.9672 9.54617 26.7349 9.61717 26.517 9.72035C26.3058 9.81611 26.1217 9.96073 25.9805 10.1417C25.8322 10.3438 25.7564 10.5883 25.765 10.8369C25.7551 11.0587 25.8137 11.2782 25.9332 11.4668C26.0527 11.6555 26.2276 11.8045 26.4351 11.8945C26.9718 12.1401 27.5347 12.3266 28.1135 12.4507C28.5815 12.5576 29.042 12.6934 29.4924 12.8573C29.9151 13.0097 30.3123 13.2227 30.6709 13.4893C31.012 13.7447 31.2885 14.0734 31.4789 14.45C31.6955 14.9024 31.8003 15.3981 31.7848 15.8974C31.7976 16.4173 31.6753 16.932 31.4293 17.3932C31.1956 17.8089 30.8703 18.1687 30.477 18.4466C30.0587 18.7448 29.5875 18.9648 29.0873 19.0954C28.5499 19.2402 27.9944 19.3111 27.437 19.3061C26.9311 19.3119 26.426 19.2689 25.9288 19.1776C25.5462 19.111 25.1715 19.0065 24.8106 18.8658C24.5033 18.7637 24.2204 18.6017 23.9789 18.3897C23.836 18.261 23.7508 18.0823 23.7419 17.8925C23.7449 17.6719 23.8018 17.4552 23.9078 17.2604C24.0177 17.0498 24.1599 16.797 24.3387 16.5189C24.4486 16.6116 24.6016 16.7295 24.7998 16.8665C25.0236 17.0194 25.2616 17.1513 25.5108 17.2604C25.8056 17.3904 26.1112 17.4954 26.4243 17.5744C26.7764 17.6615 27.1385 17.704 27.5016 17.7008C27.7795 17.7014 28.0568 17.6739 28.3289 17.6186C28.5841 17.5705 28.829 17.48 29.0529 17.351C29.2682 17.2254 29.4476 17.0486 29.5743 16.837C29.7161 16.5882 29.7854 16.3062 29.7746 16.0217C29.7848 15.7386 29.7099 15.4588 29.5592 15.2169C29.4115 15.0031 29.2172 14.824 28.9904 14.6923C28.7408 14.5475 28.4737 14.4336 28.1954 14.3531C27.9023 14.2688 27.6072 14.1951 27.3077 14.1319C26.8607 14.0433 26.4208 13.9236 25.9913 13.7738C25.5901 13.6377 25.2139 13.4392 24.8774 13.186C24.552 12.9369 24.2852 12.6221 24.0953 12.2632C23.888 11.8463 23.7868 11.3867 23.8001 10.9233C23.7902 10.4528 23.9045 9.98767 24.1319 9.57288C24.3502 9.18459 24.6596 8.85247 25.0347 8.60377C25.4299 8.34272 25.8668 8.14765 26.3274 8.02652C26.8187 7.89486 27.3261 7.82895 27.8356 7.83059C28.3921 7.82497 28.9473 7.88725 29.4881 8.01599C29.9094 8.11367 30.3148 8.26825 30.6925 8.47526Z" fill="white"/>
<path d="M43.7769 24H41.7624V18.1011C41.417 18.4227 41.0303 18.6989 40.6119 18.9227C40.0411 19.2214 39.3995 19.3668 38.7525 19.3441C38.1185 19.3488 37.4888 19.2425 36.8931 19.0302C36.3185 18.8223 35.8019 18.4852 35.385 18.0463C34.9192 17.5469 34.5713 16.9535 34.3659 16.3082C34.1019 15.4758 33.9775 14.6071 33.9975 13.7359C33.9676 12.7759 34.1135 11.8184 34.4284 10.9086C34.6683 10.2322 35.0565 9.61524 35.566 9.10099C36.0033 8.67168 36.5333 8.34344 37.1172 8.14031C37.6575 7.952 38.2264 7.85441 38.7999 7.85169C39.1795 7.8478 39.5579 7.89458 39.9246 7.99073C40.2275 8.06832 40.5213 8.17634 40.8015 8.31307C41.024 8.42374 41.2347 8.5557 41.4306 8.70703C41.5675 8.81225 41.6944 8.92929 41.8098 9.05675C41.8411 8.89448 41.9067 8.7404 42.0024 8.60435C42.0982 8.46831 42.2219 8.35331 42.3657 8.26672C42.6763 8.08671 43.0393 8.01261 43.3977 8.05604C43.4605 8.06451 43.5239 8.06874 43.5873 8.06868C43.6494 8.08308 43.7131 8.09016 43.7769 8.08975V24ZM36.0981 13.561C36.0941 14.1034 36.146 14.6447 36.2533 15.1769C36.3425 15.6353 36.5155 16.0742 36.7639 16.4725C37.0006 16.8404 37.3339 17.1394 37.7291 17.3384C38.1984 17.5608 38.7161 17.6678 39.2373 17.6502C39.5803 17.6535 39.9216 17.6023 40.2478 17.4985C40.5304 17.4124 40.7994 17.2883 41.0471 17.1299C41.248 17.0031 41.4245 16.8426 41.5685 16.6558C41.6807 16.5257 41.7478 16.3642 41.7602 16.1945V10.6958C41.6535 10.5764 41.5383 10.4644 41.4155 10.3608C41.2468 10.2169 41.0643 10.0892 40.8704 9.97951C40.6336 9.84767 40.382 9.74305 40.1206 9.66771C39.8192 9.58054 39.5064 9.53723 39.192 9.5392C38.1291 9.5392 37.3478 9.87488 36.8479 10.5462C36.3481 11.2176 36.0981 12.2225 36.0981 13.561Z" fill="white"/>
<path d="M51.596 17.6502C51.9946 17.6551 52.3913 17.5961 52.7702 17.4753C53.0923 17.3762 53.3989 17.2345 53.6816 17.0539C53.9096 16.9057 54.11 16.7205 54.2741 16.5062C54.4 16.3583 54.4753 16.1756 54.4895 15.9837V7.98856H54.6317C54.6758 7.98746 54.7197 7.98323 54.7632 7.97592C54.8141 7.97196 54.8652 7.97196 54.9161 7.97592C55.3191 7.964 55.715 8.08168 56.043 8.3109C56.3489 8.53421 56.504 8.94292 56.504 9.5265V19.0069H54.4874V18.0041C54.1076 18.3946 53.654 18.7094 53.1516 18.9311C52.4582 19.2296 51.7045 19.37 50.9475 19.3419C50.0325 19.3419 49.3215 19.2014 48.8145 18.9205C48.3436 18.677 47.9534 18.3072 47.6898 17.8545C47.4452 17.4148 47.2984 16.9294 47.2589 16.4303C47.2137 15.9121 47.1878 15.4128 47.1878 14.9345V7.98224H47.3343C47.3784 7.98114 47.4223 7.97691 47.4658 7.9696C47.5167 7.96564 47.5678 7.96564 47.6187 7.9696C48.0202 7.9569 48.4152 8.07064 48.7455 8.29404C49.0544 8.51174 49.2081 8.91413 49.2066 9.50122V14.9556C49.1945 15.4393 49.2386 15.9227 49.338 16.3966C49.4043 16.7236 49.5944 17.014 49.8702 17.2098C50.1001 17.3764 50.3627 17.4947 50.6415 17.5575C50.9551 17.6236 51.2753 17.6547 51.596 17.6502Z" fill="white"/>
<path d="M62.1874 4.53527C62.1874 4.86716 62.0526 5.18547 61.8126 5.42015C61.5726 5.65484 61.247 5.78668 60.9076 5.78668C60.5682 5.78668 60.2427 5.65484 60.0027 5.42015C59.7627 5.18547 59.6278 4.86716 59.6278 4.53527C59.6212 4.36086 59.6504 4.18692 59.7137 4.02373C59.7769 3.86053 59.873 3.71139 59.9962 3.58512C60.2385 3.34905 60.5667 3.21649 60.9087 3.21649C61.2507 3.21649 61.5788 3.34905 61.8211 3.58512C61.944 3.71157 62.0397 3.86078 62.1026 4.02397C62.1655 4.18715 62.1943 4.36101 62.1874 4.53527ZM59.9855 7.98825H60.1277C60.171 7.98703 60.2142 7.98281 60.2569 7.97561C60.3086 7.9717 60.3604 7.9717 60.4121 7.97561C60.8144 7.96368 61.2096 8.08138 61.5367 8.31058C61.8448 8.5339 61.9978 8.94261 61.9978 9.52618V16.9083C61.9701 17.2375 62.0404 17.5675 62.2003 17.8584C62.3339 18.0438 62.6463 18.1365 63.1354 18.1365V18.9792C62.9463 19.0351 62.7522 19.0739 62.5558 19.0951C62.3164 19.1249 62.0754 19.1403 61.8341 19.1414C61.4695 19.1608 61.106 19.0883 60.7783 18.9308C60.5439 18.8027 60.3541 18.609 60.2332 18.3746C60.1112 18.1321 60.0381 17.8688 60.0178 17.5993C59.9941 17.3128 59.9833 17.0305 59.9833 16.7566L59.9855 7.98825Z" fill="white"/>
<path d="M66.1454 8.03489C66.4927 8.0304 66.8342 8.12246 67.13 8.30035C67.2819 8.40031 67.4087 8.5326 67.5009 8.6873C67.593 8.842 67.6482 9.0151 67.6622 9.19361C67.931 8.82648 68.2715 8.51501 68.6641 8.27717C69.1228 7.9891 69.6595 7.84232 70.2045 7.85582C70.3915 7.85652 70.5781 7.87202 70.7626 7.90217C70.9532 7.93056 71.1398 7.98076 71.3184 8.05175C71.4833 8.11342 71.631 8.21231 71.7493 8.34037C71.864 8.4771 71.9231 8.65038 71.9152 8.82704C71.909 9.1038 71.8444 9.37633 71.7256 9.6276C71.6209 9.87341 71.494 10.1096 71.3465 10.3334C71.151 10.1575 70.9266 10.0151 70.6829 9.91202C70.3962 9.80279 70.0897 9.7519 69.7823 9.76244C69.5204 9.76122 69.2602 9.80398 69.0131 9.88884C68.7793 9.96864 68.5608 10.0861 68.3667 10.2365C68.186 10.373 68.0332 10.5417 67.9164 10.7337C67.8092 10.9088 67.7519 11.1089 67.7505 11.313V18.9943H65.736V8.05807H65.9019C65.9496 8.05805 65.9972 8.05382 66.0441 8.04543C66.0776 8.03932 66.1114 8.0358 66.1454 8.03489Z" fill="white"/>
<path d="M74.3932 8.03472C74.7397 8.03051 75.0804 8.12256 75.3756 8.30017C75.5279 8.39991 75.6551 8.5321 75.7477 8.68682C75.8402 8.84153 75.8957 9.01474 75.91 9.19344C76.1759 8.82604 76.5143 8.51443 76.9054 8.277C77.364 7.98868 77.9008 7.84188 78.4458 7.85564C78.6333 7.85272 78.8206 7.8647 79.006 7.89146C79.1968 7.9193 79.3834 7.96952 79.5619 8.04104C79.7263 8.10354 79.8738 8.20231 79.9928 8.32967C80.1069 8.4666 80.1652 8.63991 80.1565 8.81633C80.1503 9.09309 80.0857 9.36562 79.9669 9.6169C79.8631 9.86309 79.7362 10.0994 79.5878 10.3227C79.3927 10.1463 79.1683 10.0038 78.9242 9.90131C78.6375 9.79208 78.331 9.74119 78.0236 9.75173C77.7617 9.75084 77.5016 9.79359 77.2544 9.87813C77.0205 9.95775 76.802 10.0753 76.608 10.2257C76.4273 10.3623 76.2745 10.531 76.1577 10.7229C76.0496 10.8977 75.9922 11.098 75.9918 11.3023V18.9941H73.9773V8.05789H74.1432C74.1909 8.05787 74.2385 8.05364 74.2854 8.04525C74.321 8.0388 74.357 8.03528 74.3932 8.03472Z" fill="white"/>
<path d="M91.9998 13.5019C92.0024 14.239 91.9075 14.9734 91.7176 15.6867C91.5414 16.36 91.2326 16.9934 90.8084 17.5511C90.379 18.1011 89.8242 18.5455 89.1882 18.8489C88.4343 19.1926 87.6087 19.3592 86.7773 19.3356C85.9517 19.3602 85.1311 19.2017 84.3771 18.8721C83.7508 18.5849 83.2035 18.1559 82.7806 17.6207C82.3593 17.0712 82.0539 16.4453 81.8821 15.7794C81.6891 15.0614 81.5913 14.3222 81.5913 13.5799C81.5881 12.8339 81.7 12.0917 81.9231 11.3783C82.1269 10.7136 82.4646 10.0954 82.9163 9.5602C83.367 9.03283 83.9294 8.60731 84.5645 8.313C85.2868 7.99116 86.0742 7.83342 86.8677 7.85162C87.6833 7.82739 88.4938 7.98518 89.2377 8.313C89.8569 8.60097 90.399 9.02579 90.8213 9.55388C91.2378 10.088 91.5424 10.6973 91.7176 11.3467C91.9095 12.0496 92.0044 12.7745 91.9998 13.5019ZM89.8906 13.5019C89.8909 13.0243 89.847 12.5476 89.7591 12.0778C89.6819 11.6301 89.5259 11.1988 89.2981 10.8032C89.0766 10.4244 88.7581 10.1085 88.3738 9.88675C87.9015 9.63765 87.3694 9.51757 86.8333 9.53913C86.3078 9.5212 85.787 9.64123 85.3251 9.88675C84.9317 10.1091 84.6013 10.4242 84.3642 10.8032C84.1211 11.1964 83.9491 11.6275 83.8557 12.0778C83.7527 12.5458 83.7007 13.0232 83.7006 13.5019C83.7011 13.9914 83.7451 14.4799 83.832 14.9619C83.9089 15.4317 84.0732 15.8837 84.3168 16.2955C84.5519 16.687 84.8764 17.0201 85.2648 17.2688C85.7183 17.538 86.2428 17.6706 86.7729 17.6502C87.3209 17.6716 87.8636 17.5392 88.3371 17.2688C88.7332 17.0291 89.0596 16.694 89.2851 16.2955C89.5142 15.8794 89.6701 15.4286 89.7462 14.9619C89.8374 14.4803 89.8857 13.9918 89.8906 13.5019Z" fill="white"/>
<defs>
<linearGradient id="paint0_linear_1396_6870" x1="37.9592" y1="18.6294" x2="40.9435" y2="-4.84009" gradientUnits="userSpaceOnUse">
<stop offset="0.16" stop-color="#D34A20"/>
<stop offset="0.29" stop-color="#D74E21"/>
<stop offset="0.43" stop-color="#E15B25"/>
<stop offset="0.54" stop-color="#EF6B2A"/>
<stop offset="1" stop-color="#F0942A"/>
</linearGradient>
<linearGradient id="paint1_linear_1396_6870" x1="37.9592" y1="18.6294" x2="40.9435" y2="-4.84009" gradientUnits="userSpaceOnUse">
<stop offset="0.16" stop-color="#D34A20"/>
<stop offset="0.29" stop-color="#D74E21"/>
<stop offset="0.43" stop-color="#E15B25"/>
<stop offset="0.54" stop-color="#EF6B2A"/>
<stop offset="1" stop-color="#F0942A"/>
</linearGradient>
</defs>
</svg>
